<?xml version="1.0" encoding="utf-8"?>
<!-- Generator: Adobe Illustrator 28.0.0, SVG Export Plug-In . SVG Version: 6.00 Build 0)  -->
<svg version="1.1" id="Layer_1" xmlns="http://www.w3.org/2000/svg" xmlns:xlink="http://www.w3.org/1999/xlink" x="0px" y="0px"
	 viewBox="0 0 1158.9 484.7" style="enable-background:new 0 0 1158.9 484.7;" xml:space="preserve">
<g>
	<g>
		<g>
			<path d="M415.5,200.4l1.2,0.5c1.5,0.6,3.1,0.9,4.6,0.9c5.1,0,9.9-3.1,11.9-8.1c2.6-6.6-0.7-13.9-7.3-16.5l-63.4-24.7
				c0.4-3.4,0.5-6.8,0.5-10.2c0-52.5-42.7-95.3-95.3-95.3s-95.3,42.7-95.3,95.3c0,2.7,0.1,5.4,0.3,8l-69,26.9
				c-6.6,2.6-9.8,9.9-7.3,16.5c2.6,6.6,9.9,9.8,16.5,7.3l1.2-0.5L96.4,364.1c-2.5,18.6,3.1,37.3,15.4,51.4
				c12.3,14.2,30.2,22.3,49,22.3H369c18.8,0,36.7-8.1,49-22.3c12.3-14.1,17.9-32.9,15.4-51.4L415.5,200.4z M267.8,72.4
				c38.5,0,69.8,31.3,69.8,69.8c0,0.2,0,0.3,0,0.5l-41.8-16.3c-19.9-7.7-41.8-7.7-61.7,0l-36,14C199,102.8,229.9,72.4,267.8,72.4z
				 M398.8,398.7c-7.5,8.6-18.4,13.6-29.8,13.6H160.8c-11.4,0-22.3-4.9-29.8-13.6c-7.5-8.6-10.9-20-9.3-31.4l0-0.2l19.4-177.3
				l102.2-39.8c13.9-5.4,29.3-5.4,43.2,0l102.2,39.8L408.1,367l0,0.4C409.7,378.7,406.3,390.1,398.8,398.7z"/>
		</g>
		<g>
			<path d="M311.8,220l-28.6,0c-7.1,0-12.9,5.8-12.9,12.9l0,28.6c0,7.1,5.8,12.9,12.9,12.9l28.6,0c7.1,0,12.9-5.8,12.9-12.9l0-28.6
				C324.7,225.8,318.9,220,311.8,220z"/>
		</g>
		<g>
			<path d="M246.4,220l-28.6,0c-7.1,0-12.9,5.8-12.9,12.9l0,28.6c0,7.1,5.8,12.9,12.9,12.9l28.6,0c7.1,0,12.9-5.8,12.9-12.9l0-28.6
				C259.3,225.8,253.5,220,246.4,220z"/>
		</g>
		<g>
			<path d="M311.8,286.1l-28.6,0c-7.1,0-12.9,5.8-12.9,12.9l0,28.6c0,7.1,5.8,12.9,12.9,12.9l28.6,0c7.1,0,12.9-5.8,12.9-12.9
				l0-28.6C324.7,291.9,318.9,286.1,311.8,286.1z"/>
		</g>
		<g>
			<path d="M246.4,286l-28.6,0c-7.1,0-12.9,5.8-12.9,12.9l0,28.6c0,7.1,5.8,12.9,12.9,12.9l28.6,0c7.1,0,12.9-5.8,12.9-12.9l0-28.6
				C259.3,291.8,253.5,286,246.4,286z"/>
		</g>
	</g>
	<g>
		<g>
			<g>
				<path d="M568,155.9c9.3,4.8,16.4,11.6,21.5,20.4c5,8.8,7.6,19.1,7.6,30.7c0,11.6-2.5,21.8-7.6,30.5c-5,8.7-12.2,15.4-21.5,20.2
					c-9.3,4.8-20,7.2-32.2,7.2h-33.7c-3.8,0-6.9-3.1-6.9-6.9V155.7c0-3.8,3.1-6.9,6.9-6.9h33.7C548,148.8,558.7,151.2,568,155.9z
					 M563.2,235.1c6.7-6.7,10-16,10-28.1c0-12.1-3.3-21.5-10-28.4c-6.7-6.8-16.1-10.2-28.3-10.2h-9.5c-3.8,0-6.9,3.1-6.9,6.9v62.8
					c0,3.8,3.1,6.9,6.9,6.9h9.5C547.1,245.1,556.6,241.8,563.2,235.1z"/>
			</g>
			<g>
				<path d="M680.8,242.8h-36.4c-3,0-5.6,1.9-6.6,4.7l-4.4,12.8c-1,2.8-3.6,4.7-6.6,4.7h-9.7c-4.8,0-8.2-4.8-6.5-9.3l36.8-102.4
					c1-2.8,3.6-4.6,6.5-4.6h17.4c2.9,0,5.5,1.8,6.5,4.6l36.8,102.4c1.6,4.5-1.7,9.3-6.5,9.3h-9.8c-3,0-5.6-1.9-6.6-4.7l-4.4-12.8
					C686.3,244.7,683.7,242.8,680.8,242.8z M676.2,214.9l-7.1-20.4c-2.2-6.2-11-6.2-13.1,0l-7.1,20.4c-1.6,4.5,1.8,9.2,6.6,9.2h14.1
					C674.4,224.1,677.7,219.5,676.2,214.9z"/>
			</g>
			<g>
				<path d="M791.5,261.4l-21.6-38.2c-1.2-2.2-3.5-3.5-6-3.5l0,0c-3.8,0-6.9,3.1-6.9,6.9V258c0,3.8-3.1,6.9-6.9,6.9h-9.4
					c-3.8,0-6.9-3.1-6.9-6.9V155.7c0-3.8,3.1-6.9,6.9-6.9h36.7c9,0,16.6,1.6,23,4.7c6.3,3.2,11.1,7.4,14.2,12.8
					c3.2,5.4,4.7,11.4,4.7,18.1c0,7.7-2.2,14.6-6.7,20.7c-3.1,4.3-7.2,7.7-12.4,10.1c-3.7,1.8-5.2,6.3-3.1,9.8l17.4,29.4
					c2.7,4.6-0.6,10.5-6,10.5h-10.8C795.1,264.9,792.8,263.6,791.5,261.4z M756.9,195.2c0,3.8,3.1,6.9,6.9,6.9h12.5
					c6.3,0,11-1.5,14.1-4.6c3.1-3.1,4.7-7.3,4.7-12.7c0-5.3-1.6-9.5-4.7-12.4c-3.1-2.9-7.8-4.4-14.1-4.4h-12.5
					c-3.8,0-6.9,3.1-6.9,6.9V195.2z"/>
			</g>
			<g>
				<path d="M932.7,264.9H920c-2.3,0-4.5-1.2-5.8-3.1l-38-57.4c-3.8-5.7-12.7-3-12.7,3.8V258c0,3.8-3.1,6.9-6.9,6.9h-9.4
					c-3.8,0-6.9-3.1-6.9-6.9V155.5c0-3.8,3.1-6.9,6.9-6.9h12.6c2.3,0,4.5,1.2,5.8,3.1l38,57.5c3.8,5.7,12.7,3.1,12.7-3.8v-49.8
					c0-3.8,3.1-6.9,6.9-6.9h9.4c3.8,0,6.9,3.1,6.9,6.9V258C939.6,261.8,936.5,264.9,932.7,264.9z"/>
			</g>
			<g>
				<path d="M1028.9,242.8h-36.4c-3,0-5.6,1.9-6.6,4.7l-4.4,12.8c-1,2.8-3.6,4.7-6.6,4.7h-9.7c-4.8,0-8.2-4.8-6.5-9.3l36.8-102.4
					c1-2.8,3.6-4.6,6.5-4.6h17.4c2.9,0,5.5,1.8,6.5,4.6l36.8,102.4c1.6,4.5-1.7,9.3-6.5,9.3h-9.8c-3,0-5.6-1.9-6.6-4.7l-4.4-12.8
					C1034.4,244.7,1031.8,242.8,1028.9,242.8z M1024.3,214.9l-7.1-20.4c-2.2-6.2-11-6.2-13.1,0l-7.1,20.4c-1.6,4.5,1.8,9.2,6.6,9.2
					h14.1C1022.5,224.1,1025.8,219.5,1024.3,214.9z"/>
			</g>
		</g>
		<g>
			<g>
				<path d="M516,408.8c-6.5-2.8-11.6-6.8-15.4-12c-2.2-3-3.7-6.3-4.7-9.9c-1.2-4.3,2.2-8.6,6.7-8.6H514c3,0,5.8,1.9,6.7,4.7
					c0.8,2.6,2.2,4.8,4.2,6.6c3.1,2.8,7.2,4.2,12.6,4.2c5.4,0,9.7-1.3,12.8-3.9c3.1-2.6,4.7-6,4.7-10.2c0-3.4-1.1-6.3-3.2-8.5
					c-2.1-2.2-4.7-4-7.9-5.2c-3.2-1.3-7.5-2.7-13.1-4.2c-7.5-2.2-13.7-4.4-18.4-6.6c-4.7-2.2-8.8-5.4-12.1-9.8
					c-3.4-4.4-5.1-10.2-5.1-17.6c0-6.9,1.7-12.9,5.2-18c3.4-5.1,8.3-9,14.5-11.7c6.2-2.7,13.3-4.1,21.3-4.1c12,0,21.7,2.9,29.2,8.7
					c5.1,4,8.7,9.1,10.7,15.3c1.4,4.5-1.9,9.1-6.6,9.1h-11.8c-2.9,0-5.4-1.8-6.5-4.5c-0.8-2.1-2.2-3.9-4.1-5.4
					c-3.2-2.6-7.4-3.9-12.6-3.9c-4.5,0-8.2,1.2-10.9,3.5c-2.7,2.3-4.1,5.7-4.1,10.1c0,3.1,1,5.7,3.1,7.7c2.1,2.1,4.6,3.7,7.7,5
					c3.1,1.3,7.3,2.7,12.9,4.4c7.5,2.2,13.7,4.4,18.5,6.7c4.8,2.2,8.9,5.5,12.3,10c3.4,4.4,5.2,10.3,5.2,17.5c0,6.2-1.6,12-4.8,17.3
					c-3.2,5.3-7.9,9.6-14.1,12.7c-6.2,3.2-13.6,4.7-22.1,4.7C529.8,413,522.5,411.6,516,408.8z"/>
			</g>
			<g>
				<path d="M695.5,302.6v102.3c0,3.8-3.1,6.9-6.9,6.9h-9.4c-3.8,0-6.9-3.1-6.9-6.9v-35.5c0-3.8-3.1-6.9-6.9-6.9h-35.9
					c-3.8,0-6.9,3.1-6.9,6.9v35.5c0,3.8-3.1,6.9-6.9,6.9h-9.4c-3.8,0-6.9-3.1-6.9-6.9V302.6c0-3.8,3.1-6.9,6.9-6.9h9.4
					c3.8,0,6.9,3.1,6.9,6.9v33.9c0,3.8,3.1,6.9,6.9,6.9h35.9c3.8,0,6.9-3.1,6.9-6.9v-33.9c0-3.8,3.1-6.9,6.9-6.9h9.4
					C692.4,295.7,695.5,298.8,695.5,302.6z"/>
			</g>
			<g>
				<path d="M742.4,405.4c-9.1-5.1-16.3-12.2-21.6-21.2c-5.3-9-8-19.3-8-30.7c0-11.3,2.7-21.5,8-30.5c5.3-9,12.5-16.1,21.6-21.2
					c9.1-5.1,19.1-7.7,30-7.7c11,0,21,2.6,30,7.7c9,5.1,16.2,12.2,21.5,21.2c5.3,9,7.9,19.2,7.9,30.5c0,11.4-2.6,21.7-7.9,30.7
					c-5.3,9-12.5,16.1-21.5,21.2c-9.1,5.1-19.1,7.7-30,7.7C761.5,413,751.5,410.5,742.4,405.4z M790.9,387.5
					c5.3-3.2,9.5-7.7,12.5-13.6c3-5.9,4.5-12.7,4.5-20.5c0-7.8-1.5-14.6-4.5-20.4c-3-5.8-7.2-10.3-12.5-13.4
					c-5.3-3.1-11.5-4.7-18.5-4.7c-7,0-13.2,1.6-18.6,4.7c-5.4,3.1-9.6,7.6-12.6,13.4c-3,5.8-4.5,12.6-4.5,20.4
					c0,7.8,1.5,14.6,4.5,20.5c3,5.9,7.2,10.4,12.6,13.6c5.4,3.2,11.6,4.7,18.6,4.7C779.4,392.2,785.5,390.6,790.9,387.5z"/>
			</g>
			<g>
				<path d="M929.4,349.1c-2.9,5.4-7.5,9.8-13.8,13.1c-6.3,3.3-14.2,5-23.7,5h-12.5c-3.8,0-6.9,3.1-6.9,6.9v30.7
					c0,3.8-3.1,6.9-6.9,6.9H856c-3.8,0-6.9-3.1-6.9-6.9V302.6c0-3.8,3.1-6.9,6.9-6.9h35.8c9,0,16.6,1.6,23,4.7
					c6.3,3.1,11.1,7.4,14.2,12.8c3.2,5.4,4.7,11.6,4.7,18.5C933.8,337.9,932.3,343.7,929.4,349.1z M905.2,344
					c3.1-2.9,4.7-7.1,4.7-12.4c0-11.3-6.3-17-19-17h-11.5c-3.8,0-6.9,3.1-6.9,6.9v19.9c0,3.8,3.1,6.9,6.9,6.9h11.5
					C897.3,348.4,902.1,347,905.2,344z"/>
			</g>
		</g>
	</g>
	<g>
		<path d="M1051.2,375.1h-93.6c-6.1,0-11-4.9-11-11s4.9-11,11-11h93.6c6.1,0,11,4.9,11,11S1057.3,375.1,1051.2,375.1z"/>
	</g>
</g>
</svg>