<?xml version="1.0" encoding="UTF-8"?>
<svg id="Layer_1" data-name="Layer 1" xmlns="http://www.w3.org/2000/svg" viewBox="0 0 2620.81 766.78">
  <defs>
    <style>
      .cls-1 { stroke-width: 0px; }
      .cls-2, .cls-3 { stroke-width: 50px; }
      .cls-2, .cls-3, .cls-4 { fill: none; stroke: #000; stroke-miterlimit: 10; }
      .cls-3, .cls-4 { stroke-linecap: round; }
      .cls-4 { stroke-width: 22px; }
    </style>
  </defs>
  <path class="cls-2" d="m597.86,262.77l39.72,362.45c8.56,61.6-39.29,116.56-101.48,116.56H127.55c-62.19,0-110.04-54.96-101.48-116.56l39.72-362.45"/>
  <path class="cls-3" d="m638.64,278.65l-255.36-99.44c-33.1-12.89-69.83-12.89-102.93,0L25,278.65"/>
  <g>
    <rect class="cls-1" x="342.37" y="339.54" width="106.73" height="106.73" rx="25.35" ry="25.35"/>
    <rect class="cls-1" x="214.07" y="339.51" width="106.73" height="106.73" rx="25.35" ry="25.35"/>
    <rect class="cls-1" x="342.37" y="469.15" width="106.73" height="106.73" rx="25.35" ry="25.35"/>
    <rect class="cls-1" x="214.07" y="469.12" width="106.73" height="106.73" rx="25.35" ry="25.35"/>
  </g>
  <path class="cls-3" d="m496.87,215.46c1.65-9.27,2.51-18.81,2.51-28.55,0-89.42-72.49-161.91-161.92-161.91s-161.92,72.49-161.92,161.91c0,8.58.67,17.01,1.95,25.23"/>
  <g>
    <g>
      <path class="cls-1" d="m1973.13,407.84l1.21.47c1.52.59,3.08.87,4.62.87,5.1,0,9.92-3.08,11.88-8.12,2.55-6.56-.69-13.95-7.25-16.5l-63.41-24.69c.36-3.38.55-6.79.55-10.19,0-52.54-42.74-95.28-95.28-95.28s-95.28,42.74-95.28,95.28c0,2.68.12,5.36.34,8.03l-68.96,26.85c-6.56,2.55-9.81,9.94-7.25,16.5,2.55,6.56,9.94,9.81,16.5,7.25l1.21-.47-17.94,163.7c-2.52,18.56,3.08,37.28,15.38,51.41,12.34,14.18,30.2,22.31,49,22.31h208.26c18.8,0,36.66-8.13,49-22.31,12.3-14.13,17.9-32.86,15.38-51.41l-17.94-163.7Zm-147.69-127.96c38.48,0,69.79,31.31,69.79,69.79,0,.16,0,.32,0,.48l-41.81-16.28c-19.9-7.75-41.82-7.75-61.72,0l-36.04,14.03c.94-37.67,31.88-68.02,69.77-68.02Zm131.03,326.33c-7.5,8.62-18.35,13.56-29.78,13.56h-208.26c-11.42,0-22.28-4.94-29.78-13.56-7.5-8.62-10.9-20.05-9.33-31.36l.03-.18,19.43-177.26,102.18-39.79c13.93-5.43,29.28-5.43,43.22,0l102.17,39.79,19.41,177.08.05.37c1.57,11.31-1.83,22.75-9.33,31.36Z"/>
      <rect class="cls-1" x="1827.94" y="427.48" width="54.41" height="54.41" rx="12.92" ry="12.92"/>
      <rect class="cls-1" x="1762.54" y="427.46" width="54.41" height="54.41" rx="12.92" ry="12.92"/>
      <rect class="cls-1" x="1827.94" y="493.55" width="54.41" height="54.41" rx="12.92" ry="12.92"/>
      <rect class="cls-1" x="1762.54" y="493.53" width="54.41" height="54.41" rx="12.92" ry="12.92"/>
    </g>
    <g>
      <g>
        <path class="cls-1" d="m2125.61,363.41c9.26,4.77,16.42,11.56,21.47,20.38,5.05,8.82,7.57,19.05,7.57,30.7s-2.53,21.83-7.57,30.53c-5.05,8.71-12.2,15.45-21.47,20.22-9.26,4.77-20,7.16-32.2,7.16h-33.66c-3.83,0-6.94-3.11-6.94-6.94v-102.27c0-3.83,3.11-6.94,6.94-6.94h33.66c12.2,0,22.93,2.39,32.2,7.16Zm-4.74,79.21c6.66-6.66,9.98-16.03,9.98-28.12s-3.33-21.55-9.98-28.37c-6.66-6.82-16.09-10.23-28.29-10.23h-9.54c-3.83,0-6.94,3.11-6.94,6.94v62.83c0,3.83,3.11,6.94,6.94,6.94h9.54c12.2,0,21.63-3.33,28.29-9.98Z"/>
        <path class="cls-1" d="m2238.4,450.27h-36.38c-2.96,0-5.59,1.87-6.56,4.67l-4.42,12.79c-.97,2.8-3.6,4.67-6.56,4.67h-9.66c-4.8,0-8.15-4.76-6.53-9.28l36.78-102.44c.99-2.76,3.6-4.59,6.53-4.59h17.36c2.93,0,5.54,1.84,6.53,4.59l36.78,102.44c1.62,4.52-1.73,9.28-6.53,9.28h-9.82c-2.96,0-5.59-1.87-6.56-4.67l-4.42-12.79c-.97-2.8-3.6-4.67-6.56-4.67Zm-4.57-27.84l-7.07-20.43c-2.15-6.23-10.96-6.23-13.11,0l-7.07,20.43c-1.56,4.51,1.79,9.21,6.56,9.21h14.13c4.77,0,8.12-4.7,6.56-9.21Z"/>
        <path class="cls-1" d="m2349.17,468.88l-21.64-38.22c-1.23-2.18-3.54-3.52-6.04-3.52h0c-3.83,0-6.94,3.11-6.94,6.94v31.39c0,3.83-3.11,6.94-6.94,6.94h-9.42c-3.83,0-6.94-3.11-6.94-6.94v-102.27c0-3.83,3.11-6.94,6.94-6.94h36.66c8.99,0,16.64,1.58,22.96,4.74,6.32,3.16,11.07,7.43,14.23,12.81,3.16,5.38,4.74,11.4,4.74,18.05,0,7.65-2.22,14.56-6.66,20.72-3.09,4.29-7.24,7.65-12.43,10.08-3.74,1.75-5.22,6.29-3.12,9.85l17.37,29.43c2.73,4.62-.6,10.46-5.97,10.46h-10.76c-2.5,0-4.81-1.34-6.04-3.52Zm-34.62-66.15c0,3.83,3.11,6.94,6.94,6.94h12.53c6.32,0,11.04-1.52,14.14-4.58,3.1-3.05,4.66-7.29,4.66-12.73s-1.55-9.46-4.66-12.4c-3.11-2.94-7.82-4.41-14.14-4.41h-12.53c-3.83,0-6.94,3.11-6.94,6.94v20.24Z"/>
        <path class="cls-1" d="m2490.33,472.4h-12.63c-2.33,0-4.5-1.17-5.79-3.11l-37.97-57.37c-3.79-5.73-12.72-3.05-12.72,3.83v49.71c0,3.83-3.11,6.94-6.94,6.94h-9.42c-3.83,0-6.94-3.11-6.94-6.94v-102.44c0-3.83,3.11-6.94,6.94-6.94h12.63c2.33,0,4.5,1.17,5.79,3.11l37.96,57.49c3.79,5.74,12.73,3.06,12.73-3.82v-49.84c0-3.83,3.11-6.94,6.94-6.94h9.42c3.83,0,6.94,3.11,6.94,6.94v102.44c0,3.83-3.11,6.94-6.94,6.94Z"/>
        <path class="cls-1" d="m2586.5,450.27h-36.38c-2.96,0-5.59,1.87-6.56,4.67l-4.42,12.79c-.97,2.8-3.6,4.67-6.56,4.67h-9.66c-4.8,0-8.15-4.76-6.53-9.28l36.78-102.44c.99-2.76,3.6-4.59,6.53-4.59h17.36c2.93,0,5.54,1.84,6.53,4.59l36.78,102.44c1.62,4.52-1.73,9.28-6.53,9.28h-9.82c-2.96,0-5.59-1.87-6.56-4.67l-4.42-12.79c-.97-2.8-3.6-4.67-6.56-4.67Zm-4.57-27.84l-7.07-20.43c-2.15-6.23-10.96-6.23-13.11,0l-7.07,20.43c-1.56,4.51,1.79,9.21,6.56,9.21h14.13c4.77,0,8.12-4.7,6.56-9.21Z"/>
      </g>
      <g>
        <path class="cls-1" d="m2073.7,616.33c-6.49-2.77-11.62-6.77-15.39-11.98-2.16-2.99-3.72-6.28-4.68-9.89-1.16-4.35,2.24-8.58,6.74-8.58h11.28c3,0,5.76,1.87,6.67,4.73.84,2.61,2.24,4.8,4.2,6.59,3.05,2.77,7.24,4.16,12.56,4.16s9.71-1.3,12.81-3.91c3.1-2.61,4.66-6.02,4.66-10.23,0-3.44-1.06-6.27-3.16-8.49-2.11-2.22-4.74-3.96-7.9-5.24-3.16-1.27-7.52-2.69-13.06-4.24-7.55-2.22-13.67-4.41-18.39-6.57-4.72-2.16-8.76-5.43-12.15-9.82-3.39-4.38-5.08-10.23-5.08-17.56,0-6.88,1.72-12.87,5.16-17.97,3.44-5.1,8.26-9.01,14.48-11.73,6.21-2.72,13.31-4.08,21.3-4.08,11.98,0,21.71,2.91,29.2,8.74,5.14,4,8.7,9.09,10.68,15.26,1.44,4.5-1.86,9.12-6.59,9.12h-11.81c-2.88,0-5.39-1.8-6.48-4.47-.84-2.06-2.2-3.87-4.1-5.43-3.16-2.61-7.35-3.91-12.56-3.91-4.55,0-8.18,1.16-10.9,3.49-2.72,2.33-4.08,5.71-4.08,10.15,0,3.11,1.02,5.69,3.08,7.74,2.05,2.05,4.6,3.72,7.65,4.99,3.05,1.28,7.35,2.74,12.9,4.41,7.54,2.22,13.7,4.44,18.47,6.66,4.77,2.22,8.87,5.55,12.31,9.98,3.44,4.44,5.16,10.26,5.16,17.47,0,6.21-1.61,11.98-4.83,17.31-3.22,5.32-7.93,9.57-14.14,12.73-6.21,3.16-13.59,4.74-22.13,4.74-8.1,0-15.39-1.39-21.88-4.16Z"/>
        <path class="cls-1" d="m2253.16,510.12v102.27c0,3.83-3.11,6.94-6.94,6.94h-9.42c-3.83,0-6.94-3.11-6.94-6.94v-35.54c0-3.83-3.11-6.94-6.94-6.94h-35.88c-3.83,0-6.94,3.11-6.94,6.94v35.54c0,3.83-3.11,6.94-6.94,6.94h-9.42c-3.83,0-6.94-3.11-6.94-6.94v-102.27c0-3.83,3.11-6.94,6.94-6.94h9.42c3.83,0,6.94,3.11,6.94,6.94v33.88c0,3.83,3.11,6.94,6.94,6.94h35.88c3.83,0,6.94-3.11,6.94-6.94v-33.88c0-3.83,3.11-6.94,6.94-6.94h9.42c3.83,0,6.94,3.11,6.94,6.94Z"/>
        <path class="cls-1" d="m2300.08,612.84c-9.1-5.1-16.31-12.17-21.63-21.22-5.32-9.04-7.99-19.27-7.99-30.7s2.66-21.49,7.99-30.53c5.32-9.04,12.53-16.11,21.63-21.22,9.09-5.1,19.08-7.65,29.95-7.65s20.99,2.55,30.03,7.65c9.04,5.1,16.2,12.18,21.47,21.22,5.27,9.04,7.9,19.22,7.9,30.53s-2.64,21.66-7.9,30.7c-5.27,9.04-12.45,16.11-21.55,21.22-9.1,5.1-19.08,7.66-29.95,7.66s-20.86-2.55-29.95-7.66Zm48.42-17.89c5.32-3.16,9.48-7.68,12.48-13.56,3-5.88,4.49-12.7,4.49-20.47s-1.5-14.56-4.49-20.38-7.16-10.29-12.48-13.39c-5.32-3.1-11.48-4.66-18.47-4.66s-13.17,1.55-18.55,4.66c-5.38,3.11-9.57,7.57-12.56,13.39s-4.49,12.62-4.49,20.38,1.5,14.59,4.49,20.47c3,5.88,7.18,10.4,12.56,13.56,5.38,3.16,11.57,4.74,18.55,4.74s13.15-1.58,18.47-4.74Z"/>
        <path class="cls-1" d="m2487.03,556.6c-2.94,5.44-7.54,9.82-13.81,13.14-6.27,3.33-14.17,4.99-23.71,4.99h-12.53c-3.83,0-6.94,3.11-6.94,6.94v30.72c0,3.83-3.11,6.94-6.94,6.94h-9.42c-3.83,0-6.94-3.11-6.94-6.94v-102.27c0-3.83,3.11-6.94,6.94-6.94h35.83c8.99,0,16.64,1.55,22.96,4.66,6.32,3.11,11.07,7.38,14.23,12.81,3.16,5.44,4.74,11.59,4.74,18.47,0,6.21-1.47,12.04-4.41,17.47Zm-24.21-5.08c3.1-2.94,4.66-7.07,4.66-12.4,0-11.32-6.32-16.97-18.97-16.97h-11.53c-3.83,0-6.94,3.11-6.94,6.94v19.9c0,3.83,3.11,6.94,6.94,6.94h11.53c6.43,0,11.2-1.47,14.31-4.41Z"/>
      </g>
    </g>
    <line class="cls-4" x1="2515.31" y1="571.63" x2="2608.87" y2="571.63"/>
  </g>
</svg>